<?xml version="1.0" encoding="UTF-8"?><svg id="a" xmlns="http://www.w3.org/2000/svg" viewBox="0 0 168.85 44.22"><defs><style>.b{fill:#231f20;}</style></defs><path class="b" d="M0,12.87h3.64c.14.98.54,1.71,1.2,2.18s1.63.71,2.88.71c1.07,0,1.88-.19,2.42-.57s.81-.94.81-1.69c0-1.09-1.56-1.99-4.68-2.7-.04,0-.08-.02-.11-.02-.08-.02-.21-.04-.38-.09-1.67-.36-2.86-.77-3.58-1.23-.63-.41-1.11-.95-1.45-1.64s-.5-1.49-.5-2.43C.27,3.66.86,2.32,2.04,1.39,3.23.46,4.94,0,7.17,0c2.09,0,3.73.49,4.91,1.48,1.18.99,1.8,2.38,1.87,4.18h-3.54c-.06-.87-.4-1.53-1-1.98s-1.46-.68-2.57-.68c-.96,0-1.71.19-2.23.57s-.78.91-.78,1.61c0,.95,1.02,1.66,3.05,2.13.55.13.98.23,1.29.3,1.31.33,2.23.59,2.78.78s1.02.39,1.43.62c.73.41,1.28.94,1.64,1.61s.55,1.47.55,2.4c0,1.86-.63,3.31-1.88,4.34s-3.03,1.54-5.31,1.54-4.02-.52-5.3-1.57S.1,14.8,0,12.87Z"/><path class="b" d="M23.01,18.4V3.68h-5.31V.49h14.28v3.2h-5.28v14.71h-3.68Z"/><path class="b" d="M35.23.44h3.72v11.24c0,1.39.28,2.4.83,3.03s1.43.95,2.63.95,2.1-.32,2.66-.95.83-1.65.83-3.04V.44h3.68v11.64c0,2.2-.61,3.88-1.84,5.06s-3,1.76-5.31,1.76-4.11-.59-5.34-1.76c-1.24-1.17-1.85-2.86-1.85-5.06V.44Z"/><path class="b" d="M52.67,18.4V.49h7.02c2.75,0,4.8.74,6.15,2.23s2.02,3.73,2.02,6.75c0,1.64-.25,3.08-.75,4.33s-1.22,2.25-2.17,3.02c-.71.57-1.52.97-2.43,1.22s-2.18.37-3.82.37h-6.02ZM56.28,15.16h2.95c1.71,0,2.95-.45,3.71-1.34s1.15-2.35,1.15-4.36-.36-3.47-1.07-4.41-1.83-1.41-3.34-1.41h-3.4v11.53Z"/><path class="b" d="M70.82,18.4V.49h3.68v17.91h-3.68Z"/><path class="b" d="M77.53,9.46c0-2.89.79-5.19,2.37-6.89,1.58-1.7,3.7-2.55,6.38-2.55s4.81.85,6.39,2.55c1.58,1.7,2.38,4,2.38,6.88s-.79,5.18-2.38,6.88-3.71,2.55-6.39,2.55-4.8-.85-6.38-2.55-2.37-4-2.37-6.88ZM81.29,9.46c0,1.97.44,3.5,1.31,4.59s2.1,1.64,3.67,1.64,2.83-.55,3.71-1.64,1.33-2.62,1.33-4.59-.44-3.5-1.33-4.59-2.12-1.64-3.71-1.64-2.8.54-3.67,1.63-1.31,2.62-1.31,4.6Z"/><path class="b" d="M91.64,40.83c-.66.9-1.42,1.56-2.27,1.98s-1.84.63-2.99.63c-2.5,0-4.53-.87-6.09-2.61s-2.33-4.02-2.33-6.85.77-5.14,2.32-6.85,3.61-2.57,6.19-2.57c2.25,0,4.08.54,5.5,1.61s2.26,2.55,2.53,4.43h-3.76c-.23-.93-.69-1.64-1.39-2.13s-1.62-.73-2.74-.73c-1.5,0-2.68.55-3.53,1.65s-1.28,2.62-1.28,4.55.45,3.47,1.34,4.57,2.12,1.65,3.67,1.65c1.17,0,2.14-.34,2.93-1.03s1.27-1.63,1.46-2.83h-4.06v-3.06h7.42v9.69h-2.47l-.45-2.12Z"/><path class="b" d="M98.18,43.72v-17.91h3.71v6.68h7.39v-6.68h3.71v17.91h-3.71v-7.94h-7.39v7.94h-3.71Z"/><path class="b" d="M116.01,34.78c0-2.89.79-5.19,2.37-6.89s3.7-2.55,6.38-2.55,4.81.85,6.39,2.55,2.38,4,2.38,6.88-.79,5.18-2.38,6.88-3.71,2.55-6.39,2.55-4.8-.85-6.38-2.55-2.37-4-2.37-6.88ZM119.76,34.78c0,1.97.44,3.5,1.31,4.59s2.1,1.64,3.67,1.64,2.83-.55,3.71-1.64,1.33-2.62,1.33-4.59-.44-3.5-1.33-4.59-2.12-1.64-3.71-1.64-2.8.54-3.67,1.63-1.31,2.62-1.31,4.6Z"/><path class="b" d="M136.49,38.19h3.64c.14.98.54,1.71,1.2,2.18s1.63.71,2.88.71c1.07,0,1.88-.19,2.42-.57s.81-.94.81-1.69c0-1.09-1.56-1.99-4.68-2.7-.04,0-.08-.02-.11-.02-.08-.02-.21-.04-.38-.09-1.67-.36-2.86-.77-3.58-1.23-.63-.41-1.11-.95-1.45-1.64s-.5-1.49-.5-2.43c0-1.74.59-3.08,1.78-4.01s2.89-1.39,5.13-1.39c2.09,0,3.73.49,4.91,1.48s1.8,2.38,1.87,4.18h-3.54c-.06-.87-.4-1.53-1-1.98s-1.46-.68-2.57-.68c-.96,0-1.71.19-2.23.57s-.78.91-.78,1.61c0,.95,1.02,1.66,3.05,2.13.55.13.98.23,1.29.3,1.31.33,2.23.59,2.78.78s1.02.39,1.43.62c.73.41,1.28.94,1.64,1.61s.55,1.47.55,2.4c0,1.86-.63,3.31-1.88,4.34s-3.03,1.54-5.31,1.54-4.02-.52-5.3-1.57-1.97-2.53-2.07-4.46Z"/><path class="b" d="M154.04,43.72v-17.91h3.71v6.68h7.39v-6.68h3.71v17.91h-3.71v-7.94h-7.39v7.94h-3.71Z"/></svg>